HIERARCHY
ROOT hip
{
	OFFSET 0.000000 0.000000 0.000000 
	CHANNELS 6 Xposition Yposition Zposition Xrotation Zrotation Yrotation
	JOINT abdomen
	{
		OFFSET 0.000000 3.402643 0.000000 
		CHANNELS 3 Xrotation Zrotation Yrotation
		JOINT chest
		{
			OFFSET 0.000000 8.438565 -0.680529 
			CHANNELS 3 Xrotation Zrotation Yrotation
			JOINT neck
			{
				OFFSET 0.000000 10.207942 -0.272212 
				CHANNELS 3 Xrotation Zrotation Yrotation
				JOINT head
				{
					OFFSET 0.000000 3.130431 0.000000 
					CHANNELS 3 Xrotation Zrotation Yrotation
					End Site
					{
						OFFSET 0.000000 3.130435 0.000000 
					}
				}
			}
			JOINT lCollar
			{
				OFFSET 3.470700 6.669187 -0.816635 
				CHANNELS 3 Yrotation Zrotation Xrotation
				JOINT lShldr
				{
					OFFSET 3.198488 0.000000 0.000000 
					CHANNELS 3 Zrotation Yrotation Xrotation
					JOINT lForeArm
					{
						OFFSET 10.139888 0.000000 0.000000 
						CHANNELS 3 Yrotation Zrotation Xrotation
						JOINT lHand
						{
							OFFSET 8.370511 0.000000 0.000000 
							CHANNELS 3 Zrotation Yrotation Xrotation
							End Site
							{
								OFFSET 4.083176 0.000000 0.000000 
							}
						}
					}
				}
			}
			JOINT rCollar
			{
				OFFSET -3.470700 6.669187 -0.816635 
				CHANNELS 3 Yrotation Zrotation Xrotation
				JOINT rShldr
				{
					OFFSET -3.198488 0.000000 0.000000 
					CHANNELS 3 Zrotation Yrotation Xrotation
					JOINT rForeArm
					{
						OFFSET -10.139888 0.000000 0.000000 
						CHANNELS 3 Yrotation Zrotation Xrotation
						JOINT rHand
						{
							OFFSET -8.370511 0.000000 0.000000 
							CHANNELS 3 Zrotation Yrotation Xrotation
							End Site
							{
								OFFSET -4.083176 0.000000 0.000000 
							}
						}
					}
				}
			}
		}
	}
	JOINT lThigh
	{
		OFFSET 5.308129 -1.633274 1.361059 
		CHANNELS 3 Xrotation Zrotation Yrotation
		JOINT lShin
		{
			OFFSET -2.041588 -20.007561 0.000000 
			CHANNELS 3 Xrotation Zrotation Yrotation
			JOINT lFoot
			{
				OFFSET 0.000000 -19.190928 -1.224953 
				CHANNELS 3 Xrotation Yrotation Zrotation
				End Site
				{
					OFFSET 0.000000 -2.449906 4.627600 
				}
			}
		}
	}
	JOINT rThigh
	{
		OFFSET -5.308129 -1.633274 1.361059 
		CHANNELS 3 Xrotation Zrotation Yrotation
		JOINT rShin
		{
			OFFSET 2.041588 -20.007561 0.000000 
			CHANNELS 3 Xrotation Zrotation Yrotation
			JOINT rFoot
			{
				OFFSET 0.000000 -19.190928 -1.224953 
				CHANNELS 3 Xrotation Yrotation Zrotation
				End Site
				{
					OFFSET 0.000000 -2.449906 4.627600 
				}
			}
		}
	}
}
MOTION
Frames: 10
Frame Time: 0.011111
-1.468853 53.473000 18.228382 3.071010 -2.062665 -4.022694 4.325229 0.689755 1.911983 -11.125114 0.639903 0.496500 -13.923792 -1.052467 -1.414970 34.170685 4.321754 -1.962310 -1.896031 -0.900906 0.061420 -76.760155 -16.270172 26.991234 -62.035049 10.024452 12.272619 6.992188 16.005859 -53.337151 5.164488 -1.441709 -0.481386 78.303757 3.217661 16.409748 67.541824 -10.210599 14.775574 -7.001954 -15.996095 34.306644 -4.909196 9.897090 -1.726563 25.970142 -5.268888 -1.896116 -35.034920 4.453895 4.700361 -2.411817 -22.318928 -3.020798 3.503796 5.034273 -0.024802 -5.286017 0.786409 0.756593 
-1.462324 53.472378 18.212835 3.022052 -2.063003 -4.079447 4.442576 0.679747 1.892229 -11.213022 0.660126 0.493872 -13.894499 -1.051792 -1.415816 34.171101 4.329833 -1.956839 -1.896031 -0.900906 0.061420 -76.784027 -16.183294 27.039772 -62.216557 10.036446 12.353886 6.992188 16.005859 -53.483635 5.164488 -1.441709 -0.481386 78.325089 3.200180 16.321096 67.735130 -10.207921 14.872521 -7.001954 -15.996095 34.257813 -4.889348 9.915975 -1.540145 26.029871 -5.269112 -1.888731 -34.935768 4.461525 4.688063 -2.411819 -22.318928 -3.020798 3.503799 5.034271 -0.024803 -5.286837 0.778439 0.763630 
-1.457040 53.468338 18.197296 2.963479 -2.094409 -4.117863 4.569697 0.688923 1.874114 -11.281406 0.679340 0.481686 -13.855182 -1.008289 -1.407328 34.141743 4.285179 -1.937553 -1.896031 -0.900906 0.061420 -76.778282 -16.104807 27.081703 -62.291634 10.042220 12.389267 6.992188 16.005859 -53.405514 5.164488 -1.441709 -0.481386 78.360039 3.144809 16.310730 67.862251 -10.201846 14.924539 -7.001954 -15.996095 34.091797 -4.878184 9.942558 -1.472153 26.088020 -5.278751 -1.902994 -34.924755 4.474000 4.685090 -2.411813 -22.318930 -3.020797 3.503794 5.034273 -0.024802 -5.295609 0.784106 0.766386 
-1.452999 53.462433 18.181751 2.904962 -2.117132 -4.136217 4.696832 0.717417 1.857699 -11.340002 0.679832 0.480991 -13.855265 -1.027252 -1.402654 34.162281 4.348215 -1.927323 -1.896031 -0.900906 0.061420 -76.769073 -16.094599 27.091619 -62.302582 10.043682 12.389719 6.992188 16.005859 -53.415276 5.164488 -1.441709 -0.481386 78.373665 3.106920 16.320112 67.906776 -10.204619 14.946682 -7.001954 -15.996095 34.140625 -4.843664 9.980351 -1.401813 26.138840 -5.273770 -1.903777 -34.898006 4.383571 4.628116 -2.411818 -22.318928 -3.020798 3.503796 5.034273 -0.024802 -5.286644 0.783360 0.755162 
-1.451133 53.457767 18.167141 2.826848 -2.120841 -4.172341 4.833656 0.705424 1.857748 -11.379074 0.689888 0.479677 -13.836045 -1.078887 -1.410506 34.135620 4.467241 -1.909140 -1.896031 -0.900906 0.061420 -76.767586 -16.123859 27.042791 -62.280689 10.040755 12.379054 6.992188 16.005859 -53.522697 5.164488 -1.441709 -0.481386 78.384331 3.098179 16.397856 67.928223 -10.204147 14.958188 -7.001954 -15.996095 34.296871 -4.803751 9.998260 -1.272538 26.166874 -5.283353 -1.897400 -34.831268 4.377394 4.596068 -2.411813 -22.318930 -3.020797 3.503799 5.034272 -0.024803 -5.286329 0.784890 0.755881 
-1.451755 53.455280 18.153151 2.748721 -2.114896 -4.207995 4.970302 0.654118 1.854910 -11.408408 0.729046 0.475901 -13.797031 -1.087474 -1.409325 34.048523 4.508877 -1.895491 -1.896031 -0.900906 0.061420 -76.766594 -16.143370 27.040077 -62.282219 10.045297 12.387563 6.992188 16.005859 -53.561760 5.164488 -1.441709 -0.481386 78.413391 3.101107 16.396727 67.958755 -10.199746 14.961662 -7.001954 -15.996095 34.306644 -4.734846 9.997243 -1.150048 26.189585 -5.269679 -1.914497 -34.734318 4.446433 4.605865 -2.411814 -22.318930 -3.020797 3.503797 5.034273 -0.024802 -5.285945 0.782779 0.765667 
-1.450201 53.454037 18.140406 2.699941 -2.089214 -4.204810 5.058059 0.585055 1.840181 -11.437715 0.739016 0.474668 -13.787229 -1.063450 -1.435559 34.007687 4.474463 -1.962750 -1.896031 -0.900906 0.061420 -76.708344 -16.140640 27.167931 -62.280689 10.040755 12.379054 6.992188 16.005859 -53.483635 5.164488 -1.441709 -0.481386 78.464783 3.076840 16.355778 67.949669 -10.203659 14.971430 -7.001954 -15.996095 34.228519 -4.713180 9.963509 -1.079075 26.206753 -5.283517 -1.898982 -34.653419 4.459172 4.610168 -2.411819 -22.318928 -3.020798 3.503793 5.034275 -0.024802 -5.285785 0.783557 0.766032 
-1.447092 53.451553 18.128281 2.660941 -2.063265 -4.192268 5.126227 0.546955 1.808626 -11.476787 0.738472 0.464437 -13.816654 -1.063979 -1.474971 34.034691 4.471695 -2.038454 -1.896031 -0.900906 0.061420 -76.659317 -16.148125 27.266335 -62.238445 10.039408 12.366241 6.992188 16.005859 -53.415276 5.164488 -1.441709 -0.481386 78.504524 3.071030 16.364035 67.917503 -10.204385 14.947553 -7.001954 -15.996095 34.189453 -4.704685 9.956315 -1.038847 26.244680 -5.293035 -1.883246 -34.616299 4.377133 4.547539 -2.411816 -22.318928 -3.020798 3.503800 5.034270 -0.024803 -5.287186 0.776722 0.762822 
-1.445537 53.447506 18.113359 2.602580 -2.097700 -4.171978 5.243826 0.568504 1.761029 -11.535419 0.767247 0.451324 -13.797347 -1.110928 -1.463903 33.995758 4.490162 -2.043628 -1.896031 -0.900906 0.061420 -76.677742 -16.168539 27.226969 -62.216557 10.036446 12.353886 6.992188 16.005859 -53.434807 5.164488 -1.441709 -0.481386 78.497780 3.040905 16.394226 67.906776 -10.204619 14.946682 -7.001954 -15.996095 34.121094 -4.685560 9.986398 -0.989575 26.286425 -5.283730 -1.892380 -34.575748 4.249669 4.451687 -2.411814 -22.318928 -3.020797 3.503801 5.034270 -0.024803 -5.286162 0.785686 0.756254 
-1.439010 53.442848 18.103415 2.544134 -2.140552 -4.181323 5.361522 0.636611 1.737733 -11.574512 0.786122 0.439307 -13.768240 -1.148167 -1.455490 33.907997 4.485262 -2.022127 -1.896031 -0.900906 0.061420 -76.754898 -16.181929 27.137880 -62.216557 10.036446 12.353886 6.992188 16.005859 -53.454338 5.164488 -1.441709 -0.481386 78.481346 3.009803 16.394974 67.883705 -10.201404 14.926275 -7.001954 -15.996095 34.042965 -4.655418 10.043204 -0.960202 26.334587 -5.293428 -1.906300 -34.531738 4.212701 4.422295 -2.411818 -22.318928 -3.020798 3.503793 5.034273 -0.024802 -5.287071 0.777305 0.763094 
